<svg t="1774154110584" class="icon" viewBox="0 0 1024 1024" version="1.1" xmlns="http://www.w3.org/2000/svg" p-id="4255" width="200" height="200"><path fill="currentColor" d="M490.88 129.834667a39.125333 39.125333 0 0 1 33.92-19.626667c66.005333 0 131.84 2.133333 197.845333 6.570667 107.093333 7.296 157.866667 67.84 178.346667 103.68 25.429333 3.925333 59.221333 3.754667 67.029333 34.432 5.973333 23.552-9.258667 35.541333-23.637333 48.981333-20.608 19.2-48.341333 50.176-40.704 80.554667 2.346667 9.472 6.784 18.645333 13.482667 32.64l0.085333 0.128c13.568 28.458667 29.184 64.426667 31.658667 132.906666 6.656 185.173333-153.429333 294.229333-309.418667 302.08-102.826667 77.44-270.72 129.066667-535.765333 83.498667a56.661333 56.661333 0 0 1-40.32-30.250667 53.12 53.12 0 0 1-5.12-31.36c1.664-11.733333 7.04-21.802667 14.08-29.866666 137.728-156.8 283.093333-309.162667 411.904-473.514667 22.442667-28.586667 40.96-54.613333 49.066666-70.314667 13.184-39.210667-0.384-61.610667-26.666666-105.088-12.032-19.925333-29.44-41.728-15.786667-65.450666z m84.864 249.301333c37.290667 0.213333 78.933333 10.624 123.093333 37.333333 90.624 54.954667 99.584 170.496 69.333334 262.698667a325.12 325.12 0 0 1-35.669334 73.685333c82.602667-34.005333 141.610667-105.984 138.24-199.936-2.005333-54.613333-13.525333-79.829333-24.064-101.930666l-1.28-2.56c-5.632-11.818667-13.226667-27.605333-17.578666-44.970667-11.562667-46.08 7.466667-87.04 26.197333-114.261333a39.125333 39.125333 0 0 1-16.512-21.034667v-0.042667a109.994667 109.994667 0 0 0-24.746667-34.858666c-17.365333-16.768-46.677333-35.114667-95.402666-38.442667a2786.133333 2786.133333 0 0 0-123.306667-5.546667c19.285333 37.461333 32.341333 82.773333 12.330667 139.392-6.442667 18.176-19.626667 34.986667-30.634667 50.474667z m-35.498667 82.986667c-30.677333 8.618667-51.797333 26.88-58.794666 34.773333-115.925333 130.432-250.922667 285.397333-323.242667 368.085333 232.533333 31.872 366.976-20.906667 442.794667-82.005333 55.253333-44.501333 82.133333-95.573333 92.842666-128.170667 18.517333-56.448 22.912-135.978667-35.584-171.434666-49.194667-29.824-89.088-29.44-118.016-21.248z" p-id="4256"></path></svg>
